<svg xmlns="http://www.w3.org/2000/svg" width="1080" height="1080" viewBox="0 0 1080 1080" version="1.1"><path d="M 569 70.071 C 566.525 70.568, 563.123 71.163, 561.440 71.394 C 557.554 71.928, 551.703 74.363, 548.038 76.973 C 546.472 78.088, 544.259 79, 543.120 79 C 539.631 79, 529.341 86.472, 522.593 93.907 C 520.892 95.781, 517.811 98.894, 515.748 100.824 C 513.684 102.753, 510.599 106.508, 508.893 109.166 C 505.040 115.172, 502.695 115.392, 497.324 110.250 C 490.908 104.107, 483.818 97.952, 478.500 93.907 C 475.750 91.816, 472.934 89.181, 472.242 88.052 C 471.453 86.766, 469.931 86, 468.166 86 C 466.424 86, 464.423 85.010, 462.924 83.408 C 459.558 79.809, 457.493 78.859, 451.073 77.957 C 445.218 77.134, 437.210 75.244, 428 72.510 C 421.235 70.502, 411.352 70.121, 395 71.237 C 388.125 71.706, 379.173 72.293, 375.107 72.541 C 371.041 72.789, 367.117 73.488, 366.387 74.094 C 365.542 74.795, 363.219 74.943, 360 74.500 C 357.079 74.098, 354.425 74.216, 353.720 74.780 C 353.049 75.316, 349.919 75.959, 346.765 76.209 C 343.365 76.477, 340.280 77.341, 339.187 78.331 C 338.172 79.249, 336.639 80, 335.778 80 C 334.918 80, 333.995 80.570, 333.728 81.267 C 333.461 81.963, 330.513 83.867, 327.178 85.496 C 323.842 87.125, 320.905 89.255, 320.650 90.229 C 320.396 91.203, 319.315 92, 318.249 92 C 314.254 92, 312.686 95.363, 313.217 102.790 C 313.769 110.499, 315.395 113.783, 321.273 119.057 C 324.555 122.001, 325.382 123.524, 326.074 127.906 C 326.564 131.006, 326.510 135.310, 325.944 138.298 C 324.913 143.731, 325.963 149.020, 328.693 152.152 C 329.564 153.151, 330.008 155.324, 329.816 157.652 C 329.544 160.965, 329.173 161.487, 327.152 161.410 C 325.637 161.352, 323.137 162.947, 320.099 165.910 C 315 170.885, 312.088 177.268, 311.286 185.230 C 310.852 189.537, 311.131 190.335, 314.405 194.160 C 316.382 196.470, 318 198.882, 318 199.519 C 318 200.849, 312.366 206.199, 309.159 207.915 C 307.971 208.551, 307 209.621, 307 210.295 C 307 210.968, 306.100 212.081, 305 212.768 C 303.900 213.455, 303 214.813, 303 215.786 C 303 216.759, 301.762 218.735, 300.250 220.177 C 292.024 228.023, 289.993 234.236, 293.696 240.230 C 294.963 242.282, 296 244.375, 296 244.881 C 296 245.388, 298.138 247.922, 300.750 250.512 C 305.280 255.005, 312.347 259.045, 318.275 260.533 C 319.784 260.912, 321.266 261.622, 321.568 262.111 C 321.871 262.600, 322.849 263, 323.743 263 C 324.637 263, 327.198 263.836, 329.434 264.857 C 337.461 268.524, 342.371 269.503, 351.500 269.259 C 362.001 268.979, 368.694 268.232, 371.500 267.029 C 373.664 266.101, 380.211 264.344, 386.330 263.049 C 388.437 262.604, 390.665 261.735, 391.280 261.120 C 391.896 260.504, 393.329 260, 394.465 260 C 395.600 260, 398.271 259.066, 400.400 257.926 C 402.796 256.641, 405.171 256.077, 406.635 256.445 C 407.936 256.771, 409 256.641, 409 256.156 C 409 255.671, 412.038 253.837, 415.750 252.079 C 419.462 250.322, 423.281 248.460, 424.236 247.942 C 425.191 247.424, 426.541 246.998, 427.236 246.995 C 427.931 246.993, 429.865 245.755, 431.534 244.245 C 435.854 240.337, 449.734 231.001, 451.237 230.994 C 453.779 230.982, 485.968 200.046, 485.991 197.592 C 486.008 195.902, 494.234 186, 495.622 186 C 496.525 186, 497.045 187.294, 497.131 189.750 C 497.202 191.813, 497.398 197.884, 497.566 203.242 C 497.830 211.669, 498.335 214.100, 501.306 221.242 C 503.195 225.784, 505.236 231.300, 505.843 233.500 C 506.450 235.700, 508.646 239.617, 510.723 242.203 C 512.800 244.790, 515.227 247.944, 516.115 249.212 C 517.003 250.480, 519.028 252.177, 520.615 252.983 C 522.202 253.790, 524.772 255.474, 526.327 256.725 C 527.881 257.976, 529.794 259, 530.577 259 C 532.371 259, 532.441 261.635, 530.675 262.700 C 529.946 263.140, 529.048 264.175, 528.681 265 C 527.934 266.677, 526.480 269.055, 523.482 273.500 C 522.370 275.150, 520.807 277.850, 520.010 279.500 C 519.213 281.150, 517.310 284.381, 515.781 286.680 C 514.251 288.979, 513 291.760, 513 292.859 C 513 293.958, 512.310 295.547, 511.467 296.390 C 510.189 297.668, 510.148 298.270, 511.217 300.017 C 512.305 301.792, 512.247 302.255, 510.836 303.057 C 509.921 303.577, 508.218 307.040, 507.052 310.751 C 505.886 314.463, 504.528 318.400, 504.035 319.500 C 503.543 320.600, 502.591 323.300, 501.921 325.500 C 501.250 327.700, 499.194 332.688, 497.351 336.586 C 495.508 340.483, 494 343.989, 494 344.377 C 494 344.766, 492.650 347.971, 491 351.500 C 489.350 355.029, 488 358.562, 488 359.351 C 488 360.140, 487.350 361.036, 486.555 361.340 C 485.761 361.645, 484.810 363.499, 484.442 365.458 C 484.074 367.418, 483.374 369.269, 482.887 369.570 C 482.399 369.871, 482 371.185, 482 372.490 C 482 376.557, 477.890 381.909, 474.731 381.958 C 472.330 381.994, 472.040 382.313, 472.552 384.351 C 473.007 386.165, 472.422 387.308, 469.994 389.351 C 468.263 390.808, 465.961 392, 464.878 392 C 463.165 392, 462.996 392.460, 463.574 395.542 C 464.187 398.810, 464.006 399.171, 461.237 400.217 C 459.259 400.963, 457.773 402.530, 456.877 404.814 C 455.870 407.380, 454.414 408.751, 451.259 410.103 C 448.404 411.327, 447 412.549, 447 413.809 C 447 414.844, 446.100 416.505, 445 417.500 C 443.900 418.495, 443 419.866, 443 420.547 C 443 421.227, 441.988 422.038, 440.750 422.350 C 439.512 422.662, 438.050 423.911, 437.500 425.126 C 436.015 428.409, 433.402 429.732, 431.164 428.334 C 428.705 426.799, 427.254 427.863, 426.840 431.503 C 426.589 433.720, 425.914 434.583, 424.250 434.820 C 423.012 434.995, 422 435.713, 422 436.415 C 422 437.746, 406.640 450, 404.972 450 C 404.447 450, 403.455 450.900, 402.768 452 C 402.081 453.100, 401.130 454, 400.654 454 C 399.426 454, 391.497 460.297, 383.024 468 C 372.681 477.402, 371.538 478.373, 368.066 480.696 C 366.105 482.008, 362.673 484.975, 360.439 487.291 C 358.206 489.606, 354.443 493.075, 352.077 495 C 349.712 496.925, 346.394 499.962, 344.704 501.750 C 343.014 503.538, 341.188 505, 340.646 505 C 340.104 505, 336.646 507.813, 332.963 511.250 C 329.280 514.688, 323.524 519.525, 320.174 522 C 316.823 524.475, 314.064 527.014, 314.041 527.643 C 314.018 528.272, 313.316 529.048, 312.480 529.369 C 311.645 529.690, 310.025 531.538, 308.882 533.476 C 307.738 535.414, 306.172 537, 305.401 537 C 304.631 537, 304 537.816, 304 538.813 C 304 540.798, 299.093 546, 297.220 546 C 296.466 546, 296.253 547.016, 296.622 548.858 C 297.086 551.179, 296.799 551.819, 295.097 552.264 C 293.943 552.566, 293 553.538, 293 554.425 C 293 556.479, 287.371 567.166, 285.567 568.536 C 284.817 569.106, 283.741 572.481, 283.175 576.036 C 282.249 581.862, 282.362 582.944, 284.324 587 C 286.300 591.086, 287.083 591.700, 292.835 593.669 C 296.320 594.862, 299.413 596.080, 299.709 596.376 C 300.005 596.672, 301.974 596.034, 304.084 594.957 C 306.194 593.881, 308.613 593, 309.460 593 C 310.307 593, 311 592.398, 311 591.662 C 311 590.925, 313.806 587.888, 317.235 584.912 C 320.664 581.935, 327.362 575.675, 332.120 571 C 337.354 565.857, 343.082 561.315, 346.623 559.500 C 349.843 557.850, 354.732 555.120, 357.488 553.433 C 360.245 551.745, 365.425 548.847, 369 546.992 C 372.575 545.136, 377.395 542.114, 379.711 540.274 C 382.027 538.435, 387.202 535.315, 391.211 533.340 C 395.220 531.366, 399.694 528.906, 401.154 527.875 C 402.614 526.844, 404.336 526, 404.980 526 C 406.716 526, 419.871 518.220, 424.668 514.357 C 426.961 512.511, 429.078 511, 429.373 511 C 429.667 511, 433.819 508.750, 438.598 506 C 443.377 503.250, 447.672 501, 448.143 501 C 449.244 501, 449.265 507.298, 448.169 508.550 C 447.711 509.072, 446.767 511.525, 446.070 514 C 445.373 516.475, 444.128 519.259, 443.303 520.187 C 442.479 521.115, 442.096 522.346, 442.452 522.923 C 443.370 524.407, 440 537.346, 438.462 538.248 C 437.760 538.659, 437.408 539.846, 437.680 540.885 C 437.952 541.924, 437.685 543.077, 437.087 543.446 C 436.489 543.816, 436 545.341, 436 546.837 C 436 550.049, 433.487 554, 431.443 554 C 430.649 554, 430 554.675, 430 555.500 C 430 556.325, 430.648 557, 431.441 557 C 432.234 557, 433.154 557.441, 433.487 557.979 C 434.463 559.558, 431.780 567.120, 429.808 568.352 C 428.814 568.973, 428 569.855, 428 570.312 C 428 571.867, 425.150 574, 423.071 574 C 420.177 574, 420.480 575.831, 423.500 576.589 C 426.511 577.345, 426.939 580.942, 424.107 581.682 C 423.005 581.971, 421.971 583.393, 421.632 585.089 C 421.097 587.766, 418 589.395, 418 587 C 418 586.450, 417.659 586, 417.243 586 C 416.826 586, 416.647 588.025, 416.843 590.500 C 417.130 594.108, 416.884 595, 415.601 595 C 414.667 595, 414 594.167, 414 593 C 414 590.379, 412.317 590.427, 411.477 593.072 C 411.070 594.356, 411.424 595.811, 412.410 596.900 C 414.497 599.207, 414.416 600.314, 412 602.500 C 410.900 603.495, 410 604.725, 410 605.232 C 410 606.964, 404.342 611.816, 401.919 612.162 C 400.033 612.430, 399.559 613.036, 399.766 614.907 C 399.912 616.228, 399.321 618.092, 398.454 619.051 C 397.586 620.009, 396.617 623.315, 396.298 626.397 C 395.829 630.945, 396 632, 397.205 632 C 399.293 632, 402 635.257, 402 637.770 C 402 638.931, 402.450 640.160, 403 640.500 C 403.550 640.840, 404 640.641, 404 640.059 C 404 639.477, 404.675 639, 405.500 639 C 406.325 639, 407 639.619, 407 640.375 C 407 641.131, 408.350 642.020, 410 642.350 C 414.132 643.176, 414.159 647.413, 410.058 651.283 C 408.440 652.811, 406.813 655.059, 406.443 656.280 C 405.583 659.116, 402.048 663, 400.326 663 C 399.597 663, 399 663.494, 399 664.099 C 399 666.919, 395.651 671.733, 392.513 673.423 C 390.604 674.451, 388.777 676.127, 388.454 677.146 C 388.130 678.166, 387.518 679, 387.093 679 C 386.668 679, 385.808 680.125, 385.182 681.500 C 384.514 682.967, 383.207 684, 382.021 684 C 380.572 684, 380 684.658, 380 686.326 C 380 687.605, 378.875 689.708, 377.500 691 C 376.125 692.292, 375 693.945, 375 694.674 C 375 695.403, 374.647 696, 374.216 696 C 373.784 696, 372.668 697.292, 371.736 698.870 C 370.803 700.449, 368.730 702.283, 367.130 702.946 C 365.145 703.768, 364.034 705.081, 363.635 707.076 C 363.179 709.355, 362.509 710, 360.595 710 C 358.810 710, 358.052 710.614, 357.820 712.250 C 357.571 714.003, 356.838 714.507, 354.500 714.532 C 352.068 714.559, 351.444 715.032, 351.203 717.032 C 351.040 718.390, 350.432 720.716, 349.852 722.201 C 348.952 724.507, 349.251 725.679, 351.894 730.201 C 355.058 735.618, 359.609 741.088, 362.236 742.635 C 363.044 743.111, 365.169 744.749, 366.959 746.275 C 369.834 748.727, 370.137 749.455, 369.561 752.525 C 369.189 754.509, 368.314 756, 367.522 756 C 366.759 756, 365.860 756.867, 365.524 757.926 C 365.187 758.985, 362.682 761.553, 359.956 763.631 C 357.230 765.710, 355 767.994, 355 768.705 C 355 769.417, 354.615 770, 354.145 770 C 353.675 770, 349.777 773.368, 345.484 777.484 C 341.191 781.600, 336.897 785.215, 335.942 785.519 C 333.313 786.353, 321.211 800.831, 319.951 804.648 C 319.343 806.492, 318.235 808, 317.489 808 C 316.743 808, 315.990 809.223, 315.816 810.718 C 315.452 813.849, 310.057 818, 306.352 818 C 304.928 818, 304 818.592, 304 819.500 C 304 820.325, 303.325 821, 302.500 821 C 301.675 821, 301 821.486, 301 822.079 C 301 822.752, 299.899 822.917, 298.077 822.517 C 295.489 821.949, 295.216 822.110, 295.691 823.925 C 296.062 825.346, 295.654 826.162, 294.363 826.582 C 289.181 828.267, 287.193 829.271, 284.562 831.531 C 282.982 832.889, 280.458 834, 278.953 834 C 276.939 834, 276.066 834.602, 275.645 836.279 C 275.016 838.786, 266.590 847.674, 264.079 848.481 C 263.210 848.760, 261.648 850.264, 260.607 851.823 C 259.565 853.383, 256.550 856.423, 253.906 858.579 C 251.263 860.736, 249.077 863.284, 249.050 864.241 C 249.002 865.923, 243.500 873.847, 240.140 877.075 C 239.238 877.942, 237.600 879.934, 236.500 881.504 C 235.400 883.073, 233.546 885.364, 232.380 886.595 C 231.213 887.825, 229.955 890.042, 229.584 891.521 C 229.213 893.001, 228.062 894.433, 227.026 894.704 C 225.741 895.040, 224.926 896.478, 224.460 899.235 C 223.368 905.700, 219.940 911.327, 216.497 912.307 C 214.849 912.776, 212.150 913.625, 210.500 914.194 C 208.850 914.763, 206.150 915.468, 204.500 915.761 C 200.357 916.495, 197.298 918.678, 196.619 921.382 C 196.096 923.464, 192.357 925.989, 187.628 927.452 C 186.128 927.916, 185.880 928.650, 186.380 931.149 C 186.882 933.662, 186.518 934.717, 184.502 936.586 C 183.126 937.861, 182 939.990, 182 941.317 C 182 942.644, 181.100 944.874, 180 946.273 C 178.900 947.671, 177.984 949.644, 177.965 950.658 C 177.945 951.671, 177.286 953.625, 176.500 955 C 175.714 956.375, 175.055 958.873, 175.035 960.550 C 175.016 962.228, 174.603 964.028, 174.117 964.550 C 172.833 965.932, 172.117 975.954, 173.252 976.656 C 174.315 977.312, 173.418 984.767, 172.074 986.450 C 171.613 987.028, 170.216 992.600, 168.969 998.834 C 167.009 1008.630, 166.865 1010.802, 167.908 1014.834 C 168.571 1017.400, 169.595 1021.624, 170.184 1024.221 C 170.891 1027.343, 172.555 1030.351, 175.096 1033.104 C 178.895 1037.220, 178.996 1037.258, 184.114 1036.579 C 193.568 1035.325, 201.397 1029.503, 205.987 1020.312 C 207.171 1017.940, 208.507 1016, 208.955 1016 C 209.404 1016, 211.713 1012.785, 214.087 1008.856 C 217.331 1003.486, 219.346 998.218, 222.201 987.635 C 224.291 979.892, 226 972.826, 226 971.932 C 226 967.484, 232.079 959, 235.266 959 C 237.113 959, 239.370 957.538, 246.313 951.843 C 248.094 950.382, 252.054 948.001, 255.113 946.553 C 258.172 945.105, 262.585 942.138, 264.921 939.960 C 267.257 937.782, 269.487 936, 269.878 936 C 270.556 936, 277.135 930.422, 281.605 926.056 C 282.763 924.925, 284.493 924, 285.449 924 C 286.405 924, 287.423 923.100, 287.710 922 C 287.998 920.900, 288.926 920, 289.772 920 C 291.953 920, 296.141 916.574, 306.746 906.117 C 311.831 901.103, 316.796 897, 317.778 897 C 319.015 897, 319.949 895.694, 320.819 892.747 C 321.682 889.823, 323.007 887.959, 325.055 886.783 C 326.694 885.843, 328.336 884.289, 328.703 883.331 C 329.700 880.732, 332.273 878, 333.722 878 C 334.425 878, 335 877.100, 335 876 C 335 874.900, 335.450 874, 336 874 C 336.550 874, 337.015 873.438, 337.033 872.750 C 337.077 871.111, 340.529 867, 341.861 867 C 342.433 867, 343.260 866.364, 343.700 865.587 C 344.140 864.809, 345.850 864.022, 347.500 863.837 C 349.964 863.560, 350.444 863.097, 350.186 861.243 C 349.804 858.496, 352.479 857.193, 355.119 858.842 C 357.529 860.347, 358 860.302, 358 858.567 C 358 857.779, 358.900 856.849, 360 856.500 C 361.100 856.151, 362 855.519, 362 855.097 C 362 854.674, 365.716 852.461, 370.257 850.180 C 376.251 847.169, 380.802 843.834, 386.860 838.016 C 391.450 833.607, 395.609 830, 396.103 830 C 396.596 830, 397 829.531, 397 828.957 C 397 827.764, 411.466 813.297, 418.079 807.876 C 420.511 805.884, 424.300 802.577, 426.500 800.528 C 428.700 798.480, 432.075 795.611, 434 794.153 C 435.925 792.695, 438.846 790.190, 440.491 788.587 C 442.136 786.983, 446.058 783.528, 449.206 780.908 C 452.355 778.288, 457.774 773.187, 461.249 769.572 C 464.724 765.957, 468.063 763, 468.669 763 C 469.274 763, 470.434 761.988, 471.245 760.750 C 473.106 757.909, 485.088 745.709, 490.925 740.710 C 493.359 738.626, 496.059 737.055, 496.925 737.219 C 499.175 737.644, 499.389 742.599, 497.483 750.108 C 495.402 758.304, 494.422 764.833, 494.795 768.024 C 494.957 769.412, 497.383 773.237, 500.186 776.524 C 507.729 785.367, 515.016 787.094, 525.404 782.500 C 528.513 781.125, 531.494 780, 532.029 780 C 533.549 780, 533.167 783.617, 531.500 785 C 530.675 785.685, 529.985 786.977, 529.967 787.872 C 529.933 789.535, 528.724 791.320, 518.873 804.257 C 515.779 808.322, 512.936 812.626, 512.556 813.823 C 512.176 815.021, 511.490 816, 511.031 816 C 510.573 816, 509.263 817.462, 508.122 819.250 C 504.150 825.469, 503.493 826.424, 502.250 827.779 C 501.562 828.529, 501 829.725, 501 830.437 C 501 832.580, 496.982 837, 495.034 837 C 492.880 837, 492 838.908, 492 843.582 C 492 845.871, 491.530 847, 490.578 847 C 489.795 847, 488.668 848.477, 488.072 850.283 C 486.636 854.632, 479.264 860.945, 473.853 862.458 C 467.789 864.154, 463.884 866.531, 462.046 869.646 C 460.958 871.491, 459.398 873, 458.579 873 C 457.670 873, 456.835 874.362, 456.434 876.500 C 456.073 878.425, 455.377 880, 454.889 880 C 454.400 880, 454 881.505, 454 883.345 C 454 885.420, 453.241 887.377, 452 888.500 C 450.900 889.495, 450 891.381, 450 892.690 C 450 895.564, 447.264 900, 445.492 900 C 444.278 900, 443 902.094, 443 904.082 C 443 904.587, 443.900 905, 445 905 C 446.667 905, 447 905.667, 447 909 C 447 911.200, 446.550 913, 446 913 C 445.450 913, 445 914.035, 445 915.300 C 445 916.565, 444.442 918.158, 443.760 918.840 C 442.012 920.588, 441.935 933.761, 443.669 934.426 C 444.650 934.803, 444.820 936.500, 444.351 941.214 C 444.006 944.671, 443.406 948.175, 443.016 949 C 441.749 951.686, 443.742 969.338, 445.455 970.591 C 446.305 971.212, 447 972.182, 447 972.746 C 447 974.686, 457.739 985.279, 458.948 984.532 C 459.593 984.134, 461.440 984.354, 463.052 985.022 C 465.507 986.038, 466.594 985.949, 469.742 984.472 C 473.977 982.485, 480.222 976.064, 482.468 971.388 C 483.290 969.676, 484.646 967.708, 485.482 967.015 C 486.317 966.322, 487 964.971, 487 964.012 C 487 963.054, 487.820 961.197, 488.822 959.885 C 493.204 954.150, 495.997 942.020, 497.521 922.100 C 498.455 909.888, 498.394 909.988, 509.060 903.472 C 513.950 900.485, 553 862.120, 553 860.303 C 553 860.065, 555.475 857.511, 558.500 854.627 C 561.525 851.744, 564 848.834, 564 848.161 C 564 847.488, 564.709 846.665, 565.577 846.332 C 566.444 845.999, 567.561 844.656, 568.059 843.346 C 568.557 842.036, 570.097 840.533, 571.482 840.007 C 573.079 839.400, 574 838.275, 574 836.931 C 574 835.654, 574.794 834.605, 576 834.290 C 577.274 833.957, 578 832.926, 578 831.451 C 578 829.992, 578.761 828.893, 580.057 828.482 C 581.189 828.123, 582.528 826.742, 583.033 825.414 C 583.537 824.086, 584.393 823, 584.933 823 C 585.474 823, 587.050 821.064, 588.437 818.698 C 589.824 816.332, 594.793 810.653, 599.479 806.078 C 604.166 801.504, 608.006 797.478, 608.013 797.131 C 608.020 796.784, 611.958 792.351, 616.763 787.279 C 633.226 769.904, 638 763.539, 638 758.964 C 638 757.840, 638.834 755.251, 639.854 753.210 C 640.873 751.170, 642.520 745.107, 643.513 739.738 C 645.114 731.080, 645.172 728.988, 644.026 721.238 C 642.793 712.903, 641.196 708.647, 629.488 682.500 C 628.749 680.850, 627.835 677.069, 627.457 674.097 C 626.792 668.866, 625.889 666.137, 621.907 657.329 C 620.708 654.676, 619.653 648.852, 619.007 641.329 C 618.449 634.823, 617.533 627.239, 616.972 624.476 C 615.903 619.213, 615.314 612.725, 614.489 597.149 C 614.216 592.006, 613.701 587.326, 613.344 586.748 C 612.203 584.901, 610.340 550.265, 610.077 526 C 609.938 513.075, 609.666 497.100, 609.475 490.500 C 609.283 483.900, 609.578 472.778, 610.131 465.785 C 610.683 458.792, 611.312 445.742, 611.528 436.785 C 611.744 427.828, 612.311 416, 612.788 410.500 C 613.278 404.835, 613.277 400, 612.784 399.346 C 612.023 398.337, 612.552 393.801, 613.663 391.805 C 615.150 389.133, 615.640 328.780, 614.193 326.562 C 613.356 325.279, 612.965 320.506, 613.056 312.677 C 613.093 309.474, 612.666 306.303, 612.107 305.629 C 611.547 304.955, 611.139 302.625, 611.200 300.452 C 611.260 298.278, 610.740 292.900, 610.044 288.500 C 607.910 275.011, 608.182 266.195, 610.887 261.240 C 612.166 258.898, 613.729 256.648, 614.362 256.240 C 614.994 255.833, 616.799 253.774, 618.371 251.665 C 619.944 249.556, 623.406 246.268, 626.065 244.358 C 628.724 242.448, 632.270 238.773, 633.944 236.192 C 635.619 233.612, 638.566 229.475, 640.493 227 C 642.420 224.525, 645.169 220.250, 646.603 217.500 C 648.036 214.750, 650.257 210.554, 651.537 208.176 C 652.817 205.797, 654.597 200.397, 655.492 196.176 C 656.386 191.954, 657.636 186.250, 658.268 183.500 C 659.617 177.636, 659.372 157.212, 657.887 151.626 C 656.324 145.751, 652.935 141.226, 648.532 139.135 L 644.565 137.252 644.495 129.376 C 644.457 125.044, 644.036 117.975, 643.559 113.666 C 642.789 106.704, 642.376 105.598, 639.846 103.728 C 638.281 102.571, 637 101.281, 637 100.862 C 637 99.484, 630.880 91, 629.886 91 C 629.352 91, 626.749 88.975, 624.103 86.500 C 621.457 84.025, 618.847 82, 618.301 82 C 617.756 82, 616.495 81.100, 615.500 80 C 614.505 78.900, 612.735 78, 611.568 78 C 610.400 78, 608.557 77.392, 607.473 76.649 C 605.390 75.223, 597.842 72.909, 589.500 71.139 C 581.723 69.489, 573.926 69.083, 569 70.071" stroke="none" fill="#000000" fill-rule="evenodd"/><path d="M 570.500 68.004 C 568.850 68.465, 564.644 69.309, 561.154 69.879 C 557.149 70.532, 553.060 72.037, 550.067 73.957 C 547.459 75.631, 544.784 77, 544.123 77 C 537.919 77, 515.781 96.248, 507 109.277 C 505.625 111.317, 503.989 112.989, 503.364 112.993 C 502.739 112.997, 499.814 110.710, 496.864 107.910 C 489.378 100.807, 483.035 95.632, 482.485 96.181 C 482.230 96.436, 484.212 98.518, 486.888 100.807 C 489.565 103.096, 493.273 106.438, 495.128 108.234 C 498.795 111.786, 503.087 114.983, 504.202 114.993 C 504.588 114.997, 506.341 112.862, 508.098 110.250 C 512.489 103.719, 521.325 94.480, 531.335 85.952 C 536.979 81.145, 540.546 79, 542.898 79 C 543.981 79, 547.075 77.628, 549.773 75.950 C 555.283 72.525, 568.761 69.551, 578 69.722 C 588.984 69.925, 605.334 74.530, 615 80.142 C 615.825 80.621, 617.175 81.308, 618 81.669 C 618.825 82.030, 621.618 84.277, 624.207 86.663 C 626.796 89.048, 629.352 91, 629.886 91 C 630.880 91, 637 99.484, 637 100.862 C 637 101.281, 638.359 102.629, 640.021 103.857 C 642.512 105.699, 643.015 106.741, 642.887 109.795 C 642.802 111.833, 643.253 116.019, 643.889 119.098 C 644.525 122.177, 644.835 127.474, 644.577 130.868 L 644.109 137.041 648.305 139.030 C 656.316 142.826, 658.939 150.495, 658.980 170.236 C 658.991 175.590, 658.573 181.890, 658.052 184.236 C 657.531 186.581, 656.389 191.875, 655.515 196 C 654.642 200.125, 653.027 205.300, 651.926 207.500 C 647.563 216.225, 644.083 222.137, 640.379 227.116 C 638.246 229.984, 635.059 234.479, 633.298 237.104 C 631.537 239.730, 629.135 242.393, 627.960 243.022 C 624.899 244.660, 618 251.048, 618 252.244 C 618 252.800, 619.960 251.448, 622.356 249.240 C 624.751 247.032, 627.597 244.751, 628.678 244.172 C 629.760 243.593, 631.962 241.180, 633.573 238.810 C 635.183 236.439, 638.319 232.235, 640.543 229.466 C 649.537 218.265, 655.746 203.916, 659.567 185.500 C 661.825 174.616, 661.137 154.358, 658.290 147.923 C 656.504 143.885, 650.863 137.788, 648.044 136.848 C 647.334 136.611, 646.735 133.025, 646.480 127.482 C 646.252 122.542, 645.604 115.800, 645.039 112.500 C 644.474 109.200, 644.009 106.265, 644.006 105.978 C 644.003 105.691, 641.984 103.260, 639.519 100.576 C 637.054 97.891, 634.788 94.908, 634.483 93.946 C 633.814 91.840, 621.692 81.955, 616.332 79.145 C 609.386 75.504, 598.385 71.162, 594.409 70.491 C 592.259 70.128, 589.150 69.455, 587.500 68.995 C 582.580 67.622, 573.710 67.105, 570.500 68.004 M 382.500 70.113 C 339.736 75.354, 340.290 75.245, 333.462 79.719 C 330.183 81.868, 325.925 84.365, 324 85.270 C 322.075 86.174, 318.587 88.681, 316.250 90.841 C 312.099 94.677, 312.001 94.918, 312.022 101.134 C 312.049 109.086, 314.293 114.257, 320.406 120.457 C 325.396 125.520, 325.845 127.654, 324.119 138.116 C 323.268 143.278, 325.002 150.927, 327.493 152.994 C 328.322 153.682, 329 155.315, 329 156.622 C 329 158.412, 328.443 159.008, 326.750 159.032 C 323.284 159.081, 315.356 167.620, 312.848 174.006 C 310.719 179.425, 309.036 191.251, 310.614 189.704 C 311.060 189.266, 311.489 187.016, 311.566 184.704 C 311.892 174.950, 320.409 162, 326.498 162 C 330.005 162, 331.611 157.891, 329.562 154.158 C 325.424 146.617, 325.476 146.938, 326.277 133.500 C 326.746 125.632, 325.500 122.029, 321.377 119.327 C 316.533 116.154, 313.714 110.246, 313.374 102.560 C 313.042 95.027, 314.439 92, 318.249 92 C 319.315 92, 320.396 91.203, 320.650 90.229 C 320.905 89.255, 323.842 87.125, 327.178 85.496 C 330.513 83.867, 333.461 81.963, 333.728 81.267 C 333.995 80.570, 334.918 80, 335.778 80 C 336.639 80, 338.172 79.249, 339.187 78.331 C 340.280 77.341, 343.365 76.477, 346.765 76.209 C 349.919 75.959, 353.049 75.316, 353.720 74.780 C 354.425 74.216, 357.079 74.098, 360 74.500 C 363.422 74.971, 365.531 74.804, 366.517 73.986 C 367.319 73.321, 368.696 73.053, 369.578 73.391 C 370.459 73.730, 371.702 73.671, 372.340 73.261 C 372.978 72.851, 375.300 72.454, 377.500 72.378 C 379.700 72.301, 387.350 71.822, 394.500 71.311 C 411.227 70.118, 421.134 70.473, 428 72.510 C 431.025 73.408, 435.975 74.736, 439 75.462 C 442.025 76.187, 445.691 77.251, 447.147 77.826 C 448.603 78.402, 450.045 78.622, 450.351 78.316 C 451.717 76.950, 458.457 79.418, 461.931 82.557 C 464.027 84.450, 466.736 86, 467.950 86 C 469.233 86, 472.042 87.884, 474.658 90.500 C 477.133 92.975, 479.685 94.997, 480.329 94.994 C 480.973 94.991, 478.932 92.516, 475.793 89.494 C 472.655 86.472, 469.256 84, 468.240 84 C 467.225 84, 464.582 82.668, 462.368 81.039 C 460.005 79.301, 456.516 77.835, 453.921 77.489 C 449.626 76.916, 441.607 74.880, 435.500 72.812 C 426.355 69.715, 420.806 69.036, 405.500 69.143 C 396.700 69.205, 386.350 69.642, 382.500 70.113 M 490.750 190.405 C 488.137 193.874, 486 197.136, 486 197.653 C 486 198.171, 484.200 200.352, 482 202.500 C 479.800 204.648, 478 206.853, 478 207.399 C 478 209.142, 485.076 201.690, 488.587 196.250 C 490.450 193.363, 492.616 191, 493.400 191 C 495.108 191, 495.946 195.776, 495.890 205.203 C 495.856 210.830, 496.485 213.398, 499.805 221.203 C 501.981 226.316, 504.070 231.936, 504.447 233.692 C 505.073 236.601, 507.327 240.144, 512.917 247 C 514.038 248.375, 514.966 248.986, 514.978 248.359 C 514.990 247.731, 513.188 245.031, 510.973 242.359 C 508.758 239.686, 506.450 235.700, 505.843 233.500 C 505.236 231.300, 503.213 225.828, 501.347 221.339 C 499.481 216.851, 497.951 211.901, 497.947 210.339 C 497.903 194.794, 497.336 184.621, 496.500 184.383 C 495.950 184.227, 493.363 186.937, 490.750 190.405 M 316 198.943 C 316 200.246, 314.254 202.282, 311.250 204.483 C 308.637 206.397, 305.375 209.573, 304 211.541 C 302.625 213.510, 300.077 216.888, 298.339 219.048 C 296.600 221.209, 294.292 224.445, 293.210 226.238 C 290.933 230.015, 289.264 237.573, 290.936 236.539 C 291.521 236.178, 292 234.620, 292 233.078 C 292 230.279, 295.542 224.762, 300.421 219.962 C 301.839 218.567, 303 216.658, 303 215.721 C 303 214.784, 303.900 213.455, 305 212.768 C 306.100 212.081, 307 210.968, 307 210.295 C 307 209.621, 307.971 208.551, 309.159 207.915 C 312.494 206.130, 318 200.826, 318 199.398 C 318 198.694, 317.550 197.840, 317 197.500 C 316.450 197.160, 316 197.809, 316 198.943 M 471.797 213.263 C 463.783 221.214, 453.571 230, 452.343 230 C 451.121 230, 438.498 238.581, 432.110 243.754 C 430.245 245.264, 428.220 246.645, 427.610 246.823 C 425.625 247.401, 422.630 248.745, 415.170 252.404 C 411.139 254.382, 406.975 256, 405.917 256 C 404.859 256, 402.314 256.900, 400.261 258 C 398.209 259.100, 395.600 260, 394.465 260 C 393.329 260, 391.896 260.504, 391.280 261.120 C 390.665 261.735, 388.437 262.611, 386.330 263.065 C 384.224 263.519, 379.800 264.592, 376.500 265.449 C 355.064 271.017, 342.796 270.856, 329.434 264.833 C 327.198 263.825, 324.637 263, 323.743 263 C 322.849 263, 321.871 262.600, 321.568 262.111 C 321.266 261.622, 319.777 260.912, 318.259 260.534 C 316.742 260.155, 314.021 259.147, 312.214 258.292 C 310.407 257.437, 308.715 256.952, 308.454 257.213 C 308.193 257.474, 309.897 258.481, 312.240 259.451 C 314.583 260.422, 317.625 261.784, 319 262.479 C 320.375 263.174, 323.300 264.309, 325.500 265.001 C 327.700 265.694, 329.950 266.602, 330.500 267.020 C 331.050 267.437, 334.717 268.553, 338.648 269.500 C 345.956 271.259, 354.636 271.173, 367 269.216 C 373.760 268.146, 395.620 261.919, 401.651 259.345 C 403.384 258.605, 405.917 258, 407.279 258 C 408.641 258, 410.315 257.325, 411 256.500 C 411.685 255.675, 412.683 255, 413.218 255 C 413.753 255, 415.508 254.063, 417.117 252.917 C 418.726 251.771, 422.620 249.935, 425.771 248.837 C 428.922 247.738, 432.625 245.831, 434 244.598 C 437.866 241.132, 450.210 232.511, 453 231.328 C 455.859 230.116, 477 211.227, 477 209.885 C 477 208.366, 476.224 208.870, 471.797 213.263 M 524.262 256.660 C 529.896 260.669, 529.548 262.018, 518.524 278.918 C 515.087 284.188, 511.542 290.750, 510.647 293.500 C 501.670 321.089, 498.298 330.451, 493.016 342.450 C 489.640 350.123, 486.251 357.548, 485.487 358.950 C 484.723 360.353, 483.096 364.594, 481.871 368.376 C 479.823 374.703, 479.227 375.519, 474.410 378.601 C 470.607 381.033, 469.302 382.437, 469.639 383.729 C 469.959 384.951, 469.076 386.115, 466.818 387.449 C 462.504 389.997, 458 394.989, 458 397.223 C 458 398.326, 457.251 399, 456.025 399 C 454.380 399, 454.147 399.483, 454.629 401.896 C 455.461 406.055, 452.262 409, 446.912 409 L 442.824 409 443.479 412.875 C 444.056 416.289, 443.812 417.003, 441.432 418.875 C 439.946 420.044, 437.952 421, 437 421 C 436.048 421, 434.197 421.838, 432.885 422.863 C 431.573 423.887, 428.606 425.687, 426.290 426.862 C 422.970 428.548, 421.832 429.829, 420.904 432.927 C 419.745 436.794, 413.673 442.971, 406.505 447.576 C 401.681 450.675, 390.703 459.066, 388.114 461.634 C 384.774 464.945, 387.271 464.605, 390.932 461.250 C 395.225 457.315, 399.677 454, 400.668 454 C 401.136 454, 402.081 453.100, 402.768 452 C 403.455 450.900, 404.447 450, 404.972 450 C 406.692 450, 422 437.725, 422 436.345 C 422 435.605, 422.845 435, 423.878 435 C 426.465 435, 428.030 432.830, 427.342 430.198 C 426.934 428.640, 427.213 428, 428.300 428 C 429.143 428, 430.006 428.518, 430.217 429.150 C 430.807 430.920, 436.303 427.942, 437.500 425.204 C 438.050 423.946, 439.512 422.662, 440.750 422.350 C 441.988 422.038, 443 421.227, 443 420.547 C 443 419.866, 443.900 418.495, 445 417.500 C 446.100 416.505, 447 414.844, 447 413.809 C 447 412.549, 448.404 411.327, 451.259 410.103 C 454.456 408.733, 455.867 407.387, 456.919 404.707 C 457.800 402.462, 459.178 400.921, 460.631 400.556 C 463.292 399.889, 465.571 396.471, 464.003 395.502 C 462.272 394.432, 462.911 392, 464.923 392 C 467.517 392, 473 387.261, 473 385.020 C 473 384, 473.978 382.947, 475.250 382.597 C 477.954 381.852, 482 375.794, 482 372.490 C 482 371.185, 482.399 369.871, 482.887 369.570 C 483.374 369.269, 484.074 367.418, 484.442 365.458 C 484.810 363.499, 485.761 361.645, 486.555 361.340 C 487.350 361.036, 488 360.140, 488 359.351 C 488 358.562, 489.350 355.029, 491 351.500 C 492.650 347.971, 494 344.766, 494 344.377 C 494 343.989, 495.508 340.483, 497.351 336.586 C 499.194 332.688, 501.250 327.700, 501.921 325.500 C 502.591 323.300, 503.543 320.600, 504.035 319.500 C 504.528 318.400, 505.888 314.456, 507.057 310.736 C 508.370 306.559, 509.937 303.569, 511.156 302.917 C 512.750 302.063, 512.897 301.580, 511.918 300.401 C 510.993 299.287, 510.978 298.344, 511.853 296.423 C 512.484 295.039, 513 293.221, 513 292.383 C 513 291.546, 514.251 288.979, 515.781 286.680 C 517.310 284.381, 519.213 281.150, 520.010 279.500 C 520.807 277.850, 522.370 275.150, 523.482 273.500 C 527.077 268.169, 528.047 266.531, 528.628 264.819 C 528.941 263.895, 529.828 262.896, 530.599 262.601 C 532.432 261.897, 532.415 259, 530.577 259 C 529.794 259, 527.816 257.875, 526.182 256.500 C 524.548 255.125, 522.607 254, 521.868 254 C 521.128 254, 522.206 255.197, 524.262 256.660 M 613.362 257.250 C 608.433 264.230, 607.446 270.911, 609.334 284.500 C 609.792 287.800, 610.405 293.650, 610.695 297.500 C 610.985 301.350, 611.650 305.030, 612.173 305.677 C 612.696 306.324, 613.082 309.474, 613.031 312.677 C 612.981 315.880, 613.145 320.300, 613.398 322.500 C 615.751 343.025, 615.968 348.828, 614.930 363.500 C 613.343 385.922, 612.959 393.928, 611.596 433 C 611.298 441.525, 611.026 448.500, 610.991 448.500 C 610.302 448.500, 609.744 478.023, 609.875 507.500 C 610.030 542.489, 611.410 572.135, 614.016 596.500 C 614.545 601.450, 615.202 608.650, 615.476 612.500 C 615.749 616.350, 616.423 621.750, 616.974 624.500 C 617.524 627.250, 617.929 630.400, 617.874 631.500 C 617.618 636.587, 620.348 653.878, 621.977 657.482 C 625.884 666.128, 626.795 668.890, 627.457 674.097 C 627.835 677.069, 628.749 680.850, 629.488 682.500 C 641.196 708.647, 642.793 712.903, 644.026 721.238 C 645.172 728.988, 645.114 731.080, 643.513 739.738 C 642.520 745.107, 640.873 751.170, 639.854 753.210 C 638.834 755.251, 638 757.977, 638 759.269 C 638 760.561, 637.339 762.491, 636.532 763.559 C 635.724 764.626, 635.049 766.163, 635.032 766.973 C 635.011 767.954, 635.502 767.728, 636.505 766.297 C 637.875 764.340, 638.810 761.841, 643.346 748 C 649.050 730.593, 647.890 718.341, 638.627 698.165 C 630.830 681.184, 630.384 679.965, 629.107 672.167 C 628.537 668.684, 626.893 663.284, 625.455 660.167 C 623.450 655.826, 622.403 650.851, 620.976 638.902 C 619.952 630.323, 618.854 622.223, 618.535 620.902 C 618.217 619.581, 617.273 610.400, 616.437 600.500 C 615.602 590.600, 614.445 577.325, 613.866 571 C 611.920 549.720, 612.363 442.932, 614.482 422.500 C 616.971 398.503, 618.029 333.601, 616.162 319.500 C 615.579 315.100, 614.611 307.225, 614.010 302 C 613.408 296.775, 612.388 289.125, 611.742 285 C 611.095 280.875, 610.551 274.544, 610.533 270.931 C 610.505 265.399, 610.936 263.702, 613.264 260.181 C 614.784 257.881, 615.627 256, 615.137 256 C 614.646 256, 613.848 256.563, 613.362 257.250 M 374.722 473.203 C 369.487 477.766, 365.369 481.673, 365.571 481.885 C 366.083 482.423, 369.910 479.818, 373.646 476.388 C 375.376 474.800, 378.713 471.811, 381.060 469.747 C 383.407 467.683, 385.083 465.749, 384.784 465.450 C 384.485 465.151, 379.957 468.640, 374.722 473.203 M 355.886 489.268 C 352.249 492.696, 347.074 497.392, 344.386 499.706 C 341.699 502.019, 337.025 506.085, 334 508.743 C 330.975 511.401, 325.935 515.508, 322.801 517.870 C 314.068 524.451, 302.213 536.465, 301.835 539.115 C 301.612 540.682, 300.057 542.265, 297.185 543.846 C 294.209 545.484, 293.051 546.690, 293.451 547.732 C 294.056 549.309, 289.735 559.428, 287.998 560.501 C 287.449 560.840, 287 562.003, 287 563.084 C 287 564.229, 286.015 565.424, 284.641 565.947 C 279.059 568.069, 280.087 589.862, 285.859 591.786 C 286.508 592.003, 286.067 590.533, 284.880 588.521 C 283.006 585.344, 282.796 583.874, 283.290 577.343 C 283.673 572.283, 284.361 569.444, 285.395 568.662 C 287.329 567.199, 293 556.583, 293 554.425 C 293 553.538, 293.900 552.577, 295 552.290 C 296.303 551.949, 297 550.926, 297 549.353 C 297 547.846, 298.315 545.784, 300.500 543.866 C 302.425 542.176, 304 539.939, 304 538.896 C 304 537.853, 304.631 537, 305.401 537 C 306.172 537, 307.738 535.414, 308.882 533.476 C 310.025 531.538, 311.645 529.690, 312.480 529.369 C 313.316 529.048, 314.018 528.272, 314.041 527.643 C 314.064 527.014, 316.823 524.475, 320.174 522 C 323.524 519.525, 329.280 514.688, 332.963 511.250 C 336.646 507.813, 340.047 505, 340.519 505 C 340.992 505, 342.981 503.451, 344.939 501.558 C 351.560 495.158, 356.303 491, 356.986 491 C 357.360 491, 359.112 489.200, 360.880 487 C 365.559 481.177, 363.461 482.130, 355.886 489.268 M 443.977 502.879 C 441.489 504.442, 436.682 507.164, 433.295 508.927 C 427.359 512.016, 423.654 515, 425.755 515 C 426.305 515, 427.315 514.325, 428 513.500 C 428.685 512.675, 429.616 512, 430.069 512 C 430.522 512, 433.580 510.425, 436.865 508.500 C 440.149 506.575, 443.548 505, 444.418 505 C 446.869 505, 446.300 508.490, 443.260 512.102 C 440.893 514.916, 440.478 516.387, 440.207 522.929 C 439.851 531.539, 438.641 534.766, 435.608 535.199 C 433.768 535.462, 433.490 536.199, 433.419 541 C 433.292 549.583, 433.259 549.658, 428.510 552.441 C 423.916 555.134, 423.157 556.545, 422.640 563.354 C 422.408 566.412, 421.557 567.872, 418.520 570.422 C 415.384 573.055, 414.805 574.086, 415.317 576.129 C 416.107 579.276, 414.550 585.031, 412.047 588.213 C 410.989 589.558, 409.802 591.972, 409.409 593.579 C 409.016 595.186, 406.963 597.998, 404.847 599.828 C 402.731 601.658, 401 603.756, 401 604.489 C 401 605.223, 398.413 607.590, 395.250 609.749 C 392.087 611.909, 389.341 614.536, 389.147 615.588 C 388.952 616.639, 388.154 618.223, 387.372 619.107 C 385.723 620.969, 386.705 622.177, 391.283 623.917 C 393.536 624.774, 394 625.558, 394 628.507 C 394 630.773, 394.554 632.275, 395.527 632.649 C 396.366 632.971, 398.218 635.222, 399.642 637.652 C 401.766 641.277, 403.018 642.280, 406.615 643.242 C 411.344 644.507, 412.127 646.097, 409.075 648.235 C 408.017 648.976, 406.392 651.478, 405.465 653.795 C 404.538 656.112, 402.537 659.053, 401.019 660.331 C 399.501 661.608, 397.505 664.241, 396.584 666.182 C 395.663 668.123, 393.761 670.325, 392.358 671.076 C 390.954 671.827, 388.667 673.805, 387.274 675.471 C 385.882 677.137, 383.788 678.744, 382.621 679.042 C 381.250 679.393, 380.039 680.984, 379.198 683.542 C 378.481 685.719, 376.569 688.871, 374.948 690.548 C 373.326 692.224, 371.998 694.024, 371.995 694.548 C 371.989 695.556, 362.547 704.462, 355 710.579 C 349.545 715, 349.411 715.229, 348.611 721.500 L 347.974 726.500 349.487 723.135 C 350.319 721.285, 351 718.726, 351 717.449 C 351 715.560, 351.606 715.068, 354.250 714.813 C 356.741 714.573, 357.575 713.975, 357.820 712.250 C 358.052 710.614, 358.810 710, 360.595 710 C 362.509 710, 363.179 709.355, 363.635 707.076 C 364.034 705.081, 365.145 703.768, 367.130 702.946 C 368.730 702.283, 370.803 700.449, 371.736 698.870 C 372.668 697.292, 373.784 696, 374.216 696 C 374.647 696, 375 695.409, 375 694.687 C 375 693.965, 376.350 692.081, 378 690.500 C 379.650 688.919, 381 686.810, 381 685.813 C 381 684.816, 381.685 684, 382.521 684 C 383.358 684, 384.555 682.875, 385.182 681.500 C 385.808 680.125, 386.668 679, 387.093 679 C 387.518 679, 388.130 678.166, 388.454 677.146 C 388.777 676.127, 390.604 674.451, 392.513 673.423 C 395.651 671.733, 399 666.919, 399 664.099 C 399 663.494, 399.597 663, 400.326 663 C 402.036 663, 405.582 659.123, 406.428 656.327 C 406.790 655.131, 408.348 652.881, 409.889 651.327 C 411.431 649.772, 412.968 647.726, 413.304 646.779 C 414.031 644.730, 411.599 642, 409.045 642 C 408.049 642, 406.998 641.100, 406.710 640 C 406.423 638.900, 405.352 638, 404.331 638 C 403.310 638, 402.030 636.987, 401.487 635.750 C 400.944 634.513, 399.496 633.059, 398.268 632.521 C 396.228 631.625, 396.089 631.068, 396.648 626.021 C 397.005 622.797, 398.023 619.657, 399.095 618.473 C 400.261 617.185, 400.718 615.636, 400.348 614.223 C 399.878 612.425, 400.186 612, 401.960 612 C 404.012 612, 410 607.078, 410 605.391 C 410 604.972, 410.942 603.626, 412.094 602.400 C 414.164 600.196, 414.058 596, 411.933 596 C 411.420 596, 411 595.325, 411 594.500 C 411 593.675, 411.675 593, 412.500 593 C 413.325 593, 414 593.450, 414 594 C 414 595.522, 416.712 595.193, 417.325 593.596 C 417.621 592.825, 417.617 591.250, 417.315 590.096 C 416.884 588.450, 417.226 588, 418.908 588 C 420.473 588, 421.207 587.216, 421.632 585.089 C 421.989 583.305, 423.001 581.972, 424.244 581.646 C 425.910 581.211, 426.164 580.571, 425.664 578.069 C 424.948 574.490, 425.697 572, 427.490 572 C 428.192 572, 429.055 571.212, 429.408 570.250 C 429.761 569.288, 430.680 567.375, 431.451 566 C 432.221 564.625, 433.166 562.235, 433.550 560.689 C 434.129 558.353, 433.888 557.784, 432.124 557.322 C 429.748 556.701, 429.195 554, 431.443 554 C 433.487 554, 436 550.049, 436 546.837 C 436 545.341, 436.450 543.840, 437 543.500 C 437.550 543.160, 438 541.784, 438 540.441 C 438 539.098, 438.376 538, 438.836 538 C 439.732 538, 443 525.572, 443 522.166 C 443 521.040, 443.388 519.878, 443.863 519.585 C 444.337 519.291, 445.304 516.902, 446.010 514.276 C 446.717 511.649, 447.679 509.072, 448.147 508.550 C 448.616 508.028, 449 506.592, 449 505.359 C 449 504.126, 449.450 502.840, 450 502.500 C 451.409 501.629, 451.245 499.996, 449.750 500.019 C 449.063 500.029, 446.465 501.317, 443.977 502.879 M 409.500 524 C 407.850 525.093, 405.825 526, 405 526.016 C 403.456 526.045, 397.862 529.938, 399.306 529.978 C 400.404 530.008, 412.266 524.102, 413.450 522.936 C 415.164 521.247, 412.623 521.932, 409.500 524 M 377.564 541.896 C 377.260 542.389, 374.196 544.244, 370.755 546.019 C 362.149 550.460, 352.875 556.208, 353.426 556.760 C 353.677 557.011, 356.497 555.662, 359.691 553.762 C 362.886 551.863, 368.518 548.653, 372.206 546.630 C 378.658 543.091, 381.225 541, 379.118 541 C 378.568 541, 377.869 541.403, 377.564 541.896 M 339.728 563.819 C 335.156 567.453, 326.937 576.271, 327.551 576.884 C 327.811 577.144, 330.166 575.139, 332.784 572.428 C 335.402 569.718, 339.324 566.038, 341.500 564.250 C 343.676 562.462, 344.965 561, 344.365 561 C 343.766 561, 341.679 562.269, 339.728 563.819 M 317.118 584.867 C 313.608 588.080, 310.908 591.111, 311.118 591.604 C 311.328 592.097, 314.650 589.476, 318.500 585.781 C 327.090 577.536, 325.952 576.783, 317.118 584.867 M 350.031 728.820 C 349.979 731.039, 355.811 738.743, 360.532 742.689 C 366.234 747.455, 366.690 751.821, 361.976 756.499 C 360.313 758.150, 356.268 762.732, 352.987 766.683 C 349.706 770.634, 344.448 776.034, 341.303 778.683 C 331.411 787.015, 322.297 796.375, 320.048 800.512 C 315.164 809.494, 311.668 813.241, 306.865 814.642 C 304.331 815.381, 301.694 816.664, 301.006 817.493 C 300.318 818.322, 298.878 819, 297.806 819 C 294.562 819, 287.258 823.898, 285.135 827.496 C 283.712 829.907, 281.944 831.236, 278.974 832.126 C 276.438 832.886, 274.499 834.181, 274.018 835.437 C 273.123 837.771, 268.001 843.086, 256.130 854 C 251.643 858.125, 247.057 863.351, 245.940 865.614 C 244.822 867.876, 241.874 872.151, 239.387 875.114 C 236.901 878.076, 233.467 882.162, 231.755 884.194 C 230.043 886.225, 228.212 888.700, 227.685 889.694 C 227.158 890.687, 225.937 892.400, 224.971 893.500 C 224.006 894.600, 222.903 896.978, 222.521 898.784 C 222.136 900.605, 220.751 902.772, 219.413 903.649 C 218.001 904.574, 217 906.200, 217 907.568 C 217 909.335, 216.206 910.150, 213.750 910.903 C 198.870 915.466, 193.246 918.243, 192.821 921.239 C 192.615 922.687, 191.170 924.150, 188.799 925.309 C 186.763 926.304, 184.791 928.104, 184.416 929.309 C 184.041 930.514, 182.219 933.189, 180.367 935.253 C 177.732 938.190, 177 939.874, 177 943.003 C 177 945.201, 176.587 947, 176.083 947 C 175.578 947, 174.660 949.357, 174.043 952.237 C 173.425 955.117, 172.208 958.560, 171.338 959.887 C 170.181 961.653, 169.915 963.634, 170.346 967.276 C 170.687 970.157, 170.475 973.113, 169.841 974.297 C 168.964 975.935, 169.097 976.598, 170.506 977.628 C 172.062 978.766, 172.125 979.411, 171.058 983.207 C 170.394 985.568, 168.766 992.803, 167.440 999.284 L 165.029 1011.068 167.525 1019.684 C 171.450 1033.226, 175.334 1038, 182.427 1038 C 188.226 1038, 196.335 1034.353, 200.808 1029.732 C 204.434 1025.988, 212 1015.577, 212 1014.333 C 212 1014.076, 213.074 1012.434, 214.386 1010.683 C 218.799 1004.794, 220.896 999.323, 225.010 982.958 C 227.262 974.001, 229.568 965.807, 230.134 964.750 C 230.699 963.694, 230.932 962.599, 230.651 962.318 C 229.982 961.648, 226 969.908, 226 971.966 C 226 972.841, 224.291 979.892, 222.201 987.635 C 219.346 998.218, 217.331 1003.486, 214.087 1008.856 C 211.713 1012.785, 209.404 1016, 208.955 1016 C 208.507 1016, 207.171 1017.940, 205.987 1020.312 C 201.320 1029.656, 193.677 1035.244, 184.072 1036.333 C 178.722 1036.939, 178.592 1036.891, 174.949 1032.945 C 172.546 1030.342, 170.879 1027.290, 170.184 1024.221 C 169.595 1021.624, 168.571 1017.400, 167.908 1014.834 C 166.864 1010.797, 167.009 1008.645, 168.984 998.857 C 170.240 992.636, 171.628 986.860, 172.069 986.023 C 173.847 982.646, 174.856 978.029, 173.940 977.463 C 172.424 976.526, 172.849 970.727, 175.087 961.813 C 176.235 957.241, 177.427 952.375, 177.736 951 C 178.045 949.625, 179.130 947.427, 180.149 946.115 C 181.167 944.803, 182 942.644, 182 941.317 C 182 939.990, 183.126 937.861, 184.502 936.586 C 186.522 934.713, 186.883 933.665, 186.377 931.134 C 185.878 928.642, 186.086 928, 187.389 928 C 190.045 928, 195.993 923.683, 196.615 921.303 C 197.305 918.666, 200.406 916.486, 204.500 915.761 C 206.150 915.468, 208.850 914.763, 210.500 914.194 C 212.150 913.625, 214.849 912.776, 216.497 912.307 C 219.940 911.327, 223.368 905.700, 224.460 899.235 C 224.926 896.478, 225.741 895.040, 227.026 894.704 C 228.062 894.433, 229.213 893.001, 229.584 891.521 C 229.955 890.042, 231.213 887.825, 232.380 886.595 C 233.546 885.364, 235.400 883.073, 236.500 881.504 C 237.600 879.934, 239.238 877.942, 240.140 877.075 C 243.500 873.847, 249.002 865.923, 249.050 864.241 C 249.077 863.284, 251.263 860.736, 253.906 858.579 C 256.550 856.423, 259.565 853.383, 260.607 851.823 C 261.648 850.264, 263.210 848.760, 264.079 848.481 C 266.201 847.799, 274.836 839.093, 275.517 836.948 C 275.815 836.008, 277.342 834.982, 278.909 834.668 C 280.476 834.355, 282.423 833.434, 283.235 832.622 C 285.683 830.174, 291.380 827.008, 293.344 827.004 C 294.358 827.002, 295.409 826.151, 295.680 825.114 C 296.016 823.829, 297.421 823.028, 300.087 822.602 C 302.604 822.200, 304 821.446, 304 820.488 C 304 819.670, 304.691 819, 305.535 819 C 307.248 819, 311.389 816.610, 314.638 813.746 C 315.960 812.581, 316.584 811.124, 316.272 809.931 C 315.934 808.641, 316.277 808, 317.306 808 C 318.165 808, 319.334 806.519, 319.951 804.648 C 321.211 800.831, 333.313 786.353, 335.942 785.519 C 336.897 785.215, 341.191 781.600, 345.484 777.484 C 349.777 773.368, 353.675 770, 354.145 770 C 354.615 770, 355 769.417, 355 768.705 C 355 767.994, 357.230 765.710, 359.956 763.631 C 362.682 761.553, 365.187 758.985, 365.524 757.926 C 365.860 756.867, 366.667 755.996, 367.317 755.992 C 368.781 755.983, 371.062 751.281, 370.382 749.677 C 370.107 749.030, 368.091 747.150, 365.901 745.500 C 360.551 741.469, 355.163 735.795, 352.364 731.243 C 351.098 729.184, 350.048 728.094, 350.031 728.820 M 491.886 740.085 C 488.384 743.276, 488.568 743.403, 493.277 741.045 C 498.110 738.625, 498.639 740.707, 495.637 750.334 C 494.155 755.088, 493 761.162, 493 764.202 C 493 769.890, 493.834 771.522, 500.762 779.392 C 506.150 785.512, 515.982 787.706, 523.654 784.500 C 528.379 782.526, 529 782.599, 529 785.132 C 529 787.675, 525.754 793.343, 521.917 797.500 C 520.394 799.150, 517.101 803.425, 514.600 807 C 512.099 810.575, 508.324 815.975, 506.211 819 C 504.098 822.025, 501.366 826.300, 500.138 828.500 C 498.911 830.700, 496.375 833.502, 494.503 834.727 C 492.027 836.346, 490.911 837.959, 490.407 840.642 C 489.799 843.886, 486.474 850.159, 484.270 852.220 C 479.969 856.244, 475.252 859.308, 468.750 862.301 C 464.488 864.264, 461 866.337, 461 866.907 C 461 867.477, 458.188 869.740, 454.750 871.936 C 445.145 878.070, 444.184 879.289, 448 880.500 C 450.696 881.356, 450.519 882.970, 447.225 887.600 C 444.639 891.235, 441.797 898.765, 439.903 907 C 439.326 909.506, 439.511 911.131, 440.553 912.721 C 441.681 914.442, 441.792 915.904, 441.049 919.221 C 440.522 921.574, 439.294 927.032, 438.321 931.349 L 436.550 939.197 439.324 941.218 C 442.025 943.185, 442.080 943.418, 441.425 950.063 C 439.680 967.777, 447.857 983.001, 460.941 986.395 C 465.732 987.637, 466.673 987.601, 470.165 986.037 C 472.305 985.080, 475.617 982.470, 477.527 980.239 C 482.192 974.789, 481.949 973.426, 477.236 978.604 C 472.242 984.091, 466.774 986.674, 463.403 985.138 C 462.030 984.512, 459.938 984, 458.754 984 C 456.604 984, 447 974.805, 447 972.747 C 447 972.182, 446.289 971.200, 445.419 970.565 C 443.230 968.964, 442.464 955.949, 443.884 944.500 C 444.779 937.293, 444.744 935.301, 443.710 934.500 C 442.002 933.177, 442.034 920.566, 443.750 918.850 C 444.438 918.162, 445 916.603, 445 915.383 C 445 914.164, 445.380 913.017, 445.845 912.833 C 446.309 912.650, 446.956 910.813, 447.282 908.750 C 447.830 905.280, 447.692 905, 445.437 905 C 442.573 905, 442.031 902.066, 444.763 901.352 C 446.881 900.798, 450 895.666, 450 892.733 C 450 891.576, 450.969 889.598, 452.153 888.337 C 453.443 886.964, 454.271 884.835, 454.220 883.023 C 454.172 881.360, 454.504 880, 454.956 880 C 455.408 880, 456.073 878.425, 456.434 876.500 C 456.835 874.362, 457.670 873, 458.579 873 C 459.398 873, 460.958 871.491, 462.046 869.646 C 463.884 866.531, 467.789 864.154, 473.853 862.458 C 479.264 860.945, 486.636 854.632, 488.072 850.283 C 488.668 848.477, 489.747 847, 490.471 847 C 492.001 847, 493.281 844.263, 492.409 842.853 C 491.257 840.989, 492.986 837, 494.946 837 C 496.964 837, 501 832.624, 501 830.437 C 501 829.725, 501.563 828.529, 502.250 827.779 C 503.493 826.424, 504.150 825.469, 508.122 819.250 C 509.263 817.462, 510.573 816, 511.031 816 C 511.490 816, 512.176 815.021, 512.556 813.823 C 512.936 812.626, 515.779 808.322, 518.873 804.257 C 528.600 791.483, 529.933 789.538, 529.967 788.064 C 529.985 787.275, 530.984 785.581, 532.187 784.301 C 533.837 782.545, 534.091 781.691, 533.222 780.822 C 532.353 779.953, 530.527 780.325, 525.785 782.338 C 514.689 787.048, 507.839 785.488, 500.151 776.500 C 495.208 770.722, 495.018 770.278, 495.023 764.500 C 495.027 761.200, 495.761 756.475, 496.656 754 C 500.125 744.404, 500.101 737, 496.600 737 C 495.869 737, 493.748 738.388, 491.886 740.085 M 472.773 758.952 C 470.867 761.178, 468.859 763, 468.309 763 C 467.229 763, 464 766.237, 464 767.319 C 464 767.683, 465.688 766.769, 467.750 765.288 C 472.007 762.230, 477.518 756.185, 476.749 755.416 C 476.468 755.135, 474.679 756.726, 472.773 758.952 M 628.857 774.109 C 627.011 776.435, 623.813 779.959, 621.750 781.941 C 616.930 786.572, 616.852 788.215, 621.653 784 C 625.961 780.217, 633.382 771.049, 632.693 770.360 C 632.429 770.096, 630.703 771.783, 628.857 774.109 M 611.182 793.313 C 609.432 795.118, 608 796.858, 608 797.178 C 608 797.499, 604.166 801.504, 599.479 806.078 C 594.793 810.653, 589.855 816.279, 588.506 818.581 C 587.157 820.882, 585.366 823.029, 584.527 823.351 C 583.687 823.674, 583 824.615, 583 825.443 C 583 826.271, 581.650 827.647, 580 828.500 C 578.292 829.383, 577 830.855, 577 831.919 C 577 832.946, 576.325 834.045, 575.500 834.362 C 574.675 834.678, 574 835.827, 574 836.914 C 574 838.082, 572.880 839.428, 571.262 840.203 C 569.756 840.925, 568.360 842.412, 568.158 843.508 C 567.812 845.395, 567.890 845.411, 569.646 843.796 C 575.424 838.487, 578.667 834.624, 579.469 832.098 C 579.836 830.943, 580.968 829.552, 581.985 829.008 C 583.002 828.464, 585.867 824.977, 588.352 821.259 C 590.836 817.542, 595.634 811.800, 599.012 808.500 C 606.734 800.958, 615.403 791.070, 614.812 790.479 C 614.565 790.232, 612.932 791.507, 611.182 793.313 M 431.879 795.959 C 429.470 798.136, 427.950 799.917, 428.500 799.916 C 429.050 799.915, 431.525 798.135, 434 795.960 C 436.475 793.785, 437.995 792.004, 437.379 792.003 C 436.762 792.001, 434.287 793.782, 431.879 795.959 M 408.750 816.038 C 406.137 818.688, 404 821.136, 404 821.476 C 404 822.551, 411.909 815.788, 413.512 813.342 C 415.929 809.653, 413.924 810.788, 408.750 816.038 M 398.200 826.200 C 397.540 826.860, 397 827.985, 397 828.700 C 397 829.415, 396.601 830, 396.113 830 C 394.882 830, 383.562 840.895, 384.165 841.499 C 384.661 841.994, 397.516 829.969, 399.932 826.750 C 401.409 824.781, 400.051 824.349, 398.200 826.200 M 564.316 847.750 C 563.974 848.712, 561.288 851.833, 558.347 854.685 C 555.406 857.537, 553 860.038, 553 860.244 C 553 860.450, 550.712 862.992, 547.917 865.893 C 545.121 868.793, 543.061 871.394, 543.339 871.672 C 543.617 871.950, 547.142 868.707, 551.172 864.466 C 555.202 860.225, 559.095 856.135, 559.821 855.377 C 560.548 854.620, 561.478 854, 561.887 854 C 562.297 854, 563.643 852.200, 564.880 850 C 566.116 847.800, 566.635 846, 566.033 846 C 565.430 846, 564.658 846.788, 564.316 847.750 M 368.284 851.036 C 365.415 852.550, 362.393 854.399, 361.569 855.145 C 357.941 858.424, 357.086 858.816, 353.886 858.662 C 350.858 858.517, 350.465 858.802, 350.173 861.360 C 349.878 863.940, 349.561 864.162, 346.923 863.635 C 344.727 863.195, 344 863.425, 344 864.556 C 344 865.385, 343.212 866.364, 342.250 866.733 C 340.109 867.552, 337.079 871.048, 337.033 872.750 C 337.015 873.438, 336.550 874, 336 874 C 335.450 874, 335 874.900, 335 876 C 335 877.100, 334.425 878, 333.722 878 C 332.387 878, 330.376 880.138, 328.242 883.825 C 327.283 885.482, 327.269 886, 328.182 886 C 329.684 886, 337 878.008, 337 876.367 C 337 874.176, 342.811 869.284, 350.293 865.178 C 354.338 862.958, 359.282 859.694, 361.282 857.924 C 363.281 856.154, 367.523 853.211, 370.708 851.383 C 377.649 847.401, 375.699 847.122, 368.284 851.036 M 532.745 881.750 C 529.108 885.462, 523.065 891.297, 519.316 894.714 C 515.567 898.132, 512.967 900.945, 513.537 900.964 C 514.107 900.984, 520.632 895.173, 528.037 888.051 C 535.442 880.929, 541.018 875.079, 540.429 875.051 C 539.840 875.023, 536.382 878.038, 532.745 881.750 M 323.345 887.631 C 322.710 887.891, 321.599 890.105, 320.877 892.552 C 319.958 895.665, 319.027 897, 317.778 897 C 316.796 897, 311.831 901.103, 306.746 906.117 C 296 916.713, 291.954 920, 289.656 920 C 288.745 920, 288 920.675, 288 921.500 C 288 922.325, 287.229 923, 286.288 923 C 285.346 923, 283.433 924.148, 282.038 925.551 C 277.043 930.571, 271.455 935.230, 268.751 936.629 C 267.238 937.411, 266 938.475, 266 938.992 C 266 940.416, 271.786 936.697, 278.500 930.957 C 281.800 928.135, 285.400 925.415, 286.500 924.913 C 292.035 922.382, 300.637 916.159, 301.718 913.903 C 303.113 910.991, 310.647 903.842, 316.709 899.677 C 318.969 898.125, 321.383 895.425, 322.074 893.677 C 322.764 891.930, 324 889.712, 324.820 888.750 C 326.262 887.056, 325.732 886.653, 323.345 887.631 M 500.035 909.458 C 499.369 910.260, 498.451 914.198, 497.996 918.208 C 497.540 922.219, 496.653 930.141, 496.025 935.814 C 494.864 946.300, 492.084 955.576, 488.811 959.885 C 487.815 961.197, 487 963.039, 487 963.980 C 487 964.920, 486.100 966.505, 485 967.500 C 483.900 968.495, 483.010 970.028, 483.022 970.905 C 483.057 973.401, 486.374 968.643, 490.978 959.494 C 495.788 949.934, 497.862 940.745, 498.938 924.223 C 499.563 914.627, 500.128 911.516, 501.524 909.973 C 502.506 908.888, 502.845 908, 502.277 908 C 501.710 908, 500.700 908.656, 500.035 909.458 M 252.500 947.683 C 250.850 948.565, 248.054 950.460, 246.287 951.893 C 239.125 957.703, 237.093 959, 235.151 959 C 234.033 959, 232.829 959.468, 232.475 960.040 C 231.189 962.121, 237.530 959.724, 242.841 956.122 C 245.778 954.130, 250.503 951.039, 253.341 949.254 C 258.594 945.949, 257.960 944.766, 252.500 947.683" stroke="none" fill="#ffffff" fill-rule="evenodd"/></svg>